<?xml version="1.0" standalone="no"?><!DOCTYPE svg PUBLIC "-//W3C//DTD SVG 1.1//EN" "http://www.w3.org/Graphics/SVG/1.1/DTD/svg11.dtd"><svg t="1649390032149" class="icon" viewBox="0 0 1024 1024" version="1.1" xmlns="http://www.w3.org/2000/svg" p-id="4051" xmlns:xlink="http://www.w3.org/1999/xlink" width="200" height="200"><defs><style type="text/css">:not([class*="icon"]):not([class*="button"]):not([class*="mjx"]):not([class*="fa"]):not(i) { font-family: 微软雅黑 !important; }
</style></defs><path d="M896 960H256c-88.32 0-160-71.68-160-160s71.68-160 160-160h640c17.6 0 32 14.4 32 32v256c0 17.6-14.4 32-32 32zM256 704c-52.8 0-96 43.2-96 96s43.2 96 96 96h608v-192H256z" fill="#06071E" p-id="4052"></path><path d="M128 832c-17.6 0-32-14.4-32-32V224c0-88.32 71.68-160 160-160h640c17.6 0 32 14.4 32 32v576c0 17.6-14.4 32-32 32s-32-14.4-32-32V128H256C203.2 128 160 171.2 160 224v576c0 17.6-14.4 32-32 32z" fill="#06071E" p-id="4053"></path><path d="M318.4 128v352l128.64-117.44L576 480V128" fill="#EA5514" p-id="4054"></path><path d="M896 832H256c-17.6 0-32-14.4-32-32s14.4-32 32-32h640c17.6 0 32 14.4 32 32s-14.4 32-32 32z" fill="#06071E" p-id="4055"></path></svg>