<?xml version="1.0" standalone="no"?><!DOCTYPE svg PUBLIC "-//W3C//DTD SVG 1.1//EN" "http://www.w3.org/Graphics/SVG/1.1/DTD/svg11.dtd"><svg t="1649389801235" class="icon" viewBox="0 0 1024 1024" version="1.1" xmlns="http://www.w3.org/2000/svg" p-id="1296" xmlns:xlink="http://www.w3.org/1999/xlink" width="200" height="200"><defs><style type="text/css">:not([class*="icon"]):not([class*="button"]):not([class*="mjx"]):not([class*="fa"]):not(i) { font-family: 微软雅黑 !important; }
</style></defs><path d="M542.5 883.9c-45.1 0-88.1-16-122.5-45.3H210.8c-50.9 0-92.4-41.4-92.4-92.3V188.2c0-50.9 41.4-92.3 92.4-92.3h211.1c28.8 0 57.6 6.9 83.1 20 13.5 6.9 26.1 15.6 37.6 25.6 11.4-10.1 24.1-18.7 37.6-25.6 25.5-13.1 54.2-20 83.1-20h211.1c24.7 0 47.9 9.6 65.3 27.1s27 40.6 27 65.2v558c0 50.9-41.4 92.3-92.3 92.3H665c-34.4 29.4-77.4 45.4-122.5 45.4zM210.8 160c-15.6 0-28.4 12.7-28.4 28.3v558.1c0 15.6 12.7 28.3 28.4 28.3h234.7l9.3 9.1c23.8 23.3 55 36.2 87.7 36.2s63.8-12.8 87.7-36.2l9.3-9.1h234.7c15.6 0 28.3-12.7 28.3-28.3V188.2c0-7.6-2.9-14.6-8.2-20-5.3-5.4-12.5-8.3-20-8.3H663.2c-37.7 0-72.3 17.4-95 47.6l-25.6 34.1-25.6-34c-22.7-30.3-57.4-47.6-95-47.6H210.8z" fill="#333333" p-id="1297"></path><path d="M542.5 545c-16.6 0-30-13.4-30-30V176h60v339c0 16.5-13.4 30-30 30zM436.2 342.8h-176c-17.7 0-32-14.3-32-32s14.3-32 32-32h176c17.7 0 32 14.3 32 32 0 17.6-14.3 32-32 32zM346.2 495.1h-86c-17.7 0-32-14.3-32-32s14.3-32 32-32h86c17.7 0 32 14.3 32 32 0 17.6-14.3 32-32 32zM405.2 648.5h-145c-17.7 0-32-14.3-32-32s14.3-32 32-32h145c17.7 0 32 14.3 32 32s-14.3 32-32 32z" fill="#333333" p-id="1298"></path></svg>